<svg width="122" height="122" viewBox="0 0 122 122" fill="none" xmlns="http://www.w3.org/2000/svg">
<circle cx="61" cy="61" r="61" fill="white"/>
<circle cx="61" cy="61" r="50" fill="#50E3C2"/>
<path d="M32.28 68.01L35.25 49.65H39.06L42.66 68.01L45.63 49.65H47.94L43.77 72H39.24L36.24 56.73L33.18 72H28.86L24.63 51.51C23.55 51.95 22.73 52.62 22.17 53.52C21.63 54.4 21.36 55.5 21.36 56.82C21.36 57.42 21.41 57.92 21.51 58.32C21.61 58.7 21.72 59.02 21.84 59.28C21.96 59.54 22.07 59.74 22.17 59.88C22.29 60.02 22.37 60.13 22.41 60.21C21.21 60.21 20.26 59.93 19.56 59.37C18.86 58.81 18.51 57.93 18.51 56.73C18.51 55.71 18.76 54.76 19.26 53.88C19.76 53 20.42 52.24 21.24 51.6C22.08 50.94 23.03 50.43 24.09 50.07C25.17 49.69 26.28 49.5 27.42 49.5C27.64 49.5 27.85 49.51 28.05 49.53C28.27 49.53 28.48 49.54 28.68 49.56L32.28 68.01ZM53.9937 51V61.56L58.8237 57H61.7937L56.6937 61.14C57.0137 61.08 57.3537 61.05 57.7137 61.05C58.2537 61.05 58.7637 61.13 59.2437 61.29C59.7437 61.43 60.1737 61.66 60.5337 61.98C60.9137 62.3 61.2037 62.71 61.4037 63.21C61.6237 63.71 61.7337 64.32 61.7337 65.04C61.7337 65.32 61.7237 65.61 61.7037 65.91C61.6837 66.21 61.6737 66.52 61.6737 66.84C61.6737 67.16 61.6937 67.47 61.7337 67.77C61.7737 68.05 61.8437 68.31 61.9437 68.55C62.0637 68.77 62.2237 68.95 62.4237 69.09C62.6437 69.21 62.9237 69.27 63.2637 69.27C63.4237 69.27 63.5937 69.26 63.7737 69.24C63.9737 69.22 64.1337 69.17 64.2537 69.09C64.2537 69.19 64.2537 69.26 64.2537 69.3C64.2737 69.32 64.2837 69.41 64.2837 69.57C64.2837 69.89 64.2437 70.21 64.1637 70.53C64.0837 70.83 63.9337 71.11 63.7137 71.37C63.5137 71.61 63.2337 71.81 62.8737 71.97C62.5337 72.11 62.0937 72.18 61.5537 72.18C60.2937 72.18 59.3137 71.8 58.6137 71.04C57.9337 70.26 57.5937 69.29 57.5937 68.13C57.5937 67.77 57.6037 67.41 57.6237 67.05C57.6437 66.69 57.6537 66.34 57.6537 66C57.6537 65.3 57.5637 64.71 57.3837 64.23C57.2037 63.75 56.7937 63.51 56.1537 63.51C55.5337 63.51 55.0537 63.69 54.7137 64.05C54.3937 64.39 54.1537 64.81 53.9937 65.31V72H49.6737V51.6L53.9937 51ZM73.8891 58.65C74.2891 59.03 74.4891 59.45 74.4891 59.91C74.4891 60.25 74.3991 60.59 74.2191 60.93C74.0391 61.25 73.7791 61.54 73.4391 61.8C73.1191 62.06 72.7291 62.27 72.2691 62.43C71.8291 62.59 71.3391 62.67 70.7991 62.67C69.7391 62.67 68.8491 62.48 68.1291 62.1C67.4091 61.7 66.8291 61.19 66.3891 60.57C65.9691 59.95 65.6591 59.28 65.4591 58.56C65.2791 57.82 65.1891 57.1 65.1891 56.4C65.1891 55.48 65.3391 54.6 65.6391 53.76C65.9591 52.92 66.4191 52.19 67.0191 51.57C67.6391 50.93 68.3991 50.43 69.2991 50.07C70.1991 49.69 71.2391 49.5 72.4191 49.5C73.3191 49.5 74.1891 49.66 75.0291 49.98C75.8891 50.3 76.6491 50.83 77.3091 51.57C77.9691 52.31 78.4991 53.29 78.8991 54.51C79.2991 55.73 79.4991 57.24 79.4991 59.04C79.4991 60.72 79.3391 62.35 79.0191 63.93C78.6991 65.51 78.1891 66.91 77.4891 68.13C76.8091 69.35 75.9391 70.33 74.8791 71.07C73.8191 71.81 72.5491 72.18 71.0691 72.18C70.3691 72.18 69.7491 72.07 69.2091 71.85C68.6891 71.61 68.2491 71.31 67.8891 70.95C67.5291 70.59 67.2591 70.19 67.0791 69.75C66.8991 69.31 66.8091 68.88 66.8091 68.46C66.8091 67.98 66.9191 67.55 67.1391 67.17C67.3791 66.79 67.7191 66.6 68.1591 66.6C68.4591 66.6 68.7991 66.7 69.1791 66.9C68.9391 67.18 68.8191 67.53 68.8191 67.95C68.8191 68.45 69.0191 68.88 69.4191 69.24C69.8391 69.58 70.3291 69.75 70.8891 69.75C71.6091 69.75 72.2491 69.46 72.8091 68.88C73.3891 68.28 73.8691 67.5 74.2491 66.54C74.6491 65.56 74.9491 64.44 75.1491 63.18C75.3691 61.9 75.4791 60.57 75.4791 59.19C75.4791 57.71 75.3691 56.48 75.1491 55.5C74.9291 54.52 74.6491 53.74 74.3091 53.16C73.9691 52.56 73.5891 52.14 73.1691 51.9C72.7691 51.66 72.3791 51.54 71.9991 51.54C71.3991 51.54 70.8791 51.7 70.4391 52.02C70.0191 52.32 69.6691 52.71 69.3891 53.19C69.1291 53.67 68.9291 54.2 68.7891 54.78C68.6691 55.36 68.6091 55.91 68.6091 56.43C68.6091 57.75 68.8591 58.74 69.3591 59.4C69.8591 60.04 70.5291 60.36 71.3691 60.36C71.8291 60.36 72.2791 60.25 72.7191 60.03C73.1791 59.79 73.5691 59.33 73.8891 58.65ZM86.5425 57V70.92C86.9625 70.76 87.3325 70.57 87.6525 70.35C87.9725 70.13 88.2525 69.86 88.4925 69.54C88.7325 69.2 88.9225 68.8 89.0625 68.34C89.2225 67.86 89.3425 67.29 89.4225 66.63H90.6825C90.5825 67.63 90.3925 68.46 90.1125 69.12C89.8525 69.76 89.5225 70.29 89.1225 70.71C88.7425 71.13 88.3225 71.46 87.8625 71.7C87.4225 71.94 86.9825 72.13 86.5425 72.27V74.4C86.5425 75.46 86.4125 76.32 86.1525 76.98C85.8925 77.66 85.5525 78.18 85.1325 78.54C84.7325 78.92 84.2825 79.17 83.7825 79.29C83.3025 79.43 82.8325 79.5 82.3725 79.5C81.7925 79.5 81.2525 79.42 80.7525 79.26C80.2325 79.1 79.7925 78.87 79.4325 78.57C79.0525 78.29 78.7525 77.94 78.5325 77.52C78.3125 77.1 78.2025 76.63 78.2025 76.11C78.2025 75.57 78.3225 75.08 78.5625 74.64C78.8025 74.22 79.1125 73.85 79.4925 73.53C79.8725 73.21 80.3025 72.93 80.7825 72.69C81.2625 72.47 81.7425 72.28 82.2225 72.12V57H86.5425ZM81.9525 53.01C81.9525 52.35 82.1825 51.79 82.6425 51.33C83.1025 50.85 83.6625 50.61 84.3225 50.61C84.9825 50.61 85.5425 50.85 86.0025 51.33C86.4825 51.79 86.7225 52.35 86.7225 53.01C86.7225 53.67 86.4825 54.23 86.0025 54.69C85.5425 55.15 84.9825 55.38 84.3225 55.38C83.6625 55.38 83.1025 55.15 82.6425 54.69C82.1825 54.23 81.9525 53.67 81.9525 53.01ZM79.7925 75.84C79.7925 76.24 79.9325 76.56 80.2125 76.8C80.4725 77.04 80.7425 77.16 81.0225 77.16C81.3825 77.16 81.6725 76.94 81.8925 76.5C82.1125 76.06 82.2225 75.39 82.2225 74.49V73.62C81.5425 73.9 80.9725 74.22 80.5125 74.58C80.0325 74.94 79.7925 75.36 79.7925 75.84ZM101.79 57V67.2C101.79 68.04 101.9 68.6 102.12 68.88C102.36 69.14 102.77 69.27 103.35 69.27C103.59 69.27 103.79 69.23 103.95 69.15C103.77 70.27 103.51 71.06 103.17 71.52C102.85 71.96 102.27 72.18 101.43 72.18C100.43 72.18 99.6695 71.93 99.1495 71.43C98.6295 70.93 98.2695 70.26 98.0695 69.42C97.9095 69.76 97.7195 70.1 97.4995 70.44C97.2795 70.76 97.0095 71.05 96.6895 71.31C96.3895 71.57 96.0295 71.78 95.6095 71.94C95.2095 72.1 94.7395 72.18 94.1995 72.18C93.5595 72.18 92.9295 72.06 92.3095 71.82C91.6895 71.58 91.1195 71.19 90.5995 70.65C90.0995 70.11 89.6895 69.4 89.3695 68.52C89.0695 67.62 88.9195 66.52 88.9195 65.22C88.9195 64.3 89.0195 63.35 89.2195 62.37C89.4395 61.39 89.7695 60.49 90.2095 59.67C90.6695 58.85 91.2595 58.18 91.9795 57.66C92.7195 57.12 93.6095 56.85 94.6495 56.85C94.8895 56.85 95.1495 56.87 95.4295 56.91C95.7095 56.93 95.9795 57 96.2395 57.12C96.4995 57.22 96.7395 57.38 96.9595 57.6C97.1795 57.8 97.3495 58.08 97.4695 58.44V57H101.79ZM95.9995 58.71C95.5195 58.71 95.0995 58.92 94.7395 59.34C94.3995 59.74 94.1195 60.25 93.8995 60.87C93.6995 61.47 93.5495 62.14 93.4495 62.88C93.3495 63.6 93.2995 64.29 93.2995 64.95C93.2995 66.01 93.3795 66.84 93.5395 67.44C93.6995 68.02 93.8895 68.45 94.1095 68.73C94.3495 68.99 94.5995 69.15 94.8595 69.21C95.1195 69.25 95.3395 69.27 95.5195 69.27C95.7395 69.27 95.9595 69.22 96.1795 69.12C96.4195 69 96.6295 68.83 96.8095 68.61C97.0095 68.39 97.1695 68.12 97.2895 67.8C97.4095 67.48 97.4695 67.1 97.4695 66.66V59.85C97.4295 59.77 97.3795 59.67 97.3195 59.55C97.2595 59.41 97.1695 59.28 97.0495 59.16C96.9295 59.04 96.7795 58.94 96.5995 58.86C96.4395 58.76 96.2395 58.71 95.9995 58.71Z" fill="white"/>
</svg>
