<svg width="97" height="36" viewBox="0 0 97 36" fill="none" xmlns="http://www.w3.org/2000/svg">
<path d="M4.11 9.5V21.4C4.11 22.5433 4.30833 23.36 4.705 23.85C5.10167 24.3167 5.60333 24.55 6.21 24.55C6.53667 24.55 6.86333 24.4683 7.19 24.305C7.51667 24.1183 7.80833 23.8617 8.065 23.535C8.32167 23.2083 8.53167 22.8117 8.695 22.345C8.85833 21.8783 8.94 21.3417 8.94 20.735V9.5H12.44V21.4C12.44 21.7967 12.4633 22.1817 12.51 22.555C12.5567 22.9283 12.65 23.2667 12.79 23.57C12.9533 23.85 13.1633 24.0833 13.42 24.27C13.7 24.4567 14.05 24.55 14.47 24.55C15.1933 24.55 15.8 24.2933 16.29 23.78C16.78 23.2433 17.1767 22.555 17.48 21.715C17.8067 20.875 18.04 19.9417 18.18 18.915C18.32 17.865 18.39 16.8267 18.39 15.8C18.39 15.1467 18.3667 14.505 18.32 13.875C18.2733 13.2217 18.1917 12.6383 18.075 12.125C17.9583 12.2417 17.8067 12.3233 17.62 12.37C17.4333 12.3933 17.2817 12.405 17.165 12.405C16.605 12.405 16.185 12.2067 15.905 11.81C15.625 11.4133 15.485 10.9933 15.485 10.55C15.485 10.0833 15.6367 9.675 15.94 9.325C16.2433 8.95167 16.6867 8.765 17.27 8.765C17.6667 8.765 18.04 8.88167 18.39 9.115C18.7633 9.34833 19.0783 9.72167 19.335 10.235C19.615 10.725 19.825 11.3783 19.965 12.195C20.1283 13.0117 20.21 14.015 20.21 15.205C20.21 16.535 20.0933 17.9117 19.86 19.335C19.65 20.735 19.2883 22.0183 18.775 23.185C18.2617 24.3517 17.5967 25.32 16.78 26.09C15.9633 26.8367 14.9483 27.21 13.735 27.21C12.825 27.21 11.9617 26.9767 11.145 26.51C10.3283 26.0433 9.72167 25.3667 9.325 24.48C8.85833 25.4367 8.28667 26.1367 7.61 26.58C6.95667 27 6.26833 27.21 5.545 27.21C4.86833 27.21 4.22667 27.1167 3.62 26.93C3.01333 26.7433 2.48833 26.44 2.045 26.02C1.60167 25.5767 1.25167 25.0167 0.995 24.34C0.738333 23.64 0.61 22.7883 0.61 21.785V9.5H4.11ZM28.8216 9.325C29.7316 9.325 30.5133 9.465 31.1666 9.745C31.82 10.025 32.3566 10.4217 32.7766 10.935C33.1966 11.425 33.5233 12.0083 33.7566 12.685C34.0133 13.3617 34.2 14.085 34.3166 14.855H34.5266C35.5066 14.855 36.405 14.6567 37.2216 14.26C38.0383 13.8633 38.7383 13.3617 39.3216 12.755L39.8466 13.7C39.38 14.4467 38.6333 15.065 37.6066 15.555C36.6033 16.045 35.565 16.3833 34.4916 16.57C34.4916 16.8033 34.4916 17.0367 34.4916 17.27C34.515 17.5033 34.5266 17.7483 34.5266 18.005C34.5266 20.875 34.0016 23.1267 32.9516 24.76C31.9016 26.3933 30.4316 27.21 28.5416 27.21C27.7716 27.21 26.99 27.07 26.1966 26.79C25.4266 26.51 24.7266 26.0433 24.0966 25.39C23.4666 24.7367 22.9533 23.8967 22.5566 22.87C22.1833 21.8433 21.9966 20.5717 21.9966 19.055C21.9966 18.0283 22.1016 16.9433 22.3116 15.8C22.545 14.6567 22.9183 13.6067 23.4316 12.65C23.9683 11.6933 24.6683 10.9 25.5316 10.27C26.4183 9.64 27.515 9.325 28.8216 9.325ZM29.1716 24.55C30.4083 24.55 31.3183 23.9433 31.9016 22.73C32.485 21.4933 32.7766 19.755 32.7766 17.515C32.7766 17.375 32.7766 17.235 32.7766 17.095C32.7766 16.955 32.765 16.815 32.7416 16.675C32.065 16.6283 31.575 16.4767 31.2716 16.22C30.9916 15.9633 30.8516 15.5317 30.8516 14.925C30.8516 14.3883 30.9683 14.015 31.2016 13.805C31.435 13.5717 31.785 13.4433 32.2516 13.42C31.9716 12.6033 31.61 12.0433 31.1666 11.74C30.7466 11.4133 30.2683 11.25 29.7316 11.25C29.0083 11.25 28.39 11.495 27.8766 11.985C27.3866 12.4517 26.9783 13.0583 26.6516 13.805C26.3483 14.5517 26.1266 15.38 25.9866 16.29C25.8466 17.1767 25.7766 18.0517 25.7766 18.915C25.7766 20.0583 25.8816 20.9917 26.0916 21.715C26.3016 22.4383 26.57 23.01 26.8966 23.43C27.2233 23.85 27.585 24.1417 27.9816 24.305C28.3783 24.4683 28.775 24.55 29.1716 24.55ZM40.5797 2.5V15.205L46.5997 9.5H49.9947L44.1497 14.225H44.4997C45.5497 14.225 46.3781 14.4 46.9847 14.75C47.6147 15.1 48.0931 15.555 48.4197 16.115C48.7697 16.6517 48.9914 17.2467 49.0847 17.9C49.2014 18.53 49.2597 19.125 49.2597 19.685C49.2597 20.175 49.2364 20.735 49.1897 21.365C49.1664 21.9717 49.1547 22.4383 49.1547 22.765C49.1547 22.975 49.1664 23.185 49.1897 23.395C49.2364 23.605 49.3064 23.8033 49.3997 23.99C49.5164 24.1533 49.6797 24.2933 49.8897 24.41C50.1231 24.5033 50.4264 24.55 50.7997 24.55C50.9864 24.55 51.2314 24.5383 51.5347 24.515C51.8381 24.4683 52.0831 24.3867 52.2697 24.27C52.2697 24.3633 52.2697 24.4567 52.2697 24.55C52.2931 24.62 52.3047 24.69 52.3047 24.76C52.3047 25.2733 52.2114 25.6933 52.0247 26.02C51.8381 26.3467 51.6047 26.6033 51.3247 26.79C51.0447 26.9533 50.7414 27.0583 50.4147 27.105C50.0881 27.175 49.7847 27.21 49.5047 27.21C48.8281 27.21 48.2447 27.105 47.7547 26.895C47.2647 26.685 46.8564 26.405 46.5297 26.055C46.2264 25.6817 45.9931 25.2617 45.8297 24.795C45.6897 24.305 45.6197 23.78 45.6197 23.22C45.6197 23.1267 45.6197 22.9283 45.6197 22.625C45.6197 22.2983 45.6197 21.96 45.6197 21.61C45.6431 21.26 45.6547 20.9333 45.6547 20.63C45.6547 20.3033 45.6547 20.0817 45.6547 19.965C45.6547 18.7517 45.4331 17.935 44.9897 17.515C44.5464 17.095 44.0331 16.885 43.4497 16.885C42.8431 16.885 42.2947 17.0833 41.8047 17.48C41.3381 17.8767 40.9297 18.5767 40.5797 19.58V27H37.0797V2.99L40.5797 2.5Z" fill="white"/>
<path d="M63.9411 11.81C64.2678 12.2067 64.4311 12.6267 64.4311 13.07C64.4311 13.4433 64.3261 13.8167 64.1161 14.19C63.9295 14.54 63.6495 14.8667 63.2761 15.17C62.9028 15.45 62.4478 15.6833 61.9111 15.87C61.3745 16.0333 60.7678 16.115 60.0911 16.115C59.1111 16.115 58.2128 15.94 57.3961 15.59C56.5795 15.24 55.8678 14.75 55.2611 14.12C54.6778 13.49 54.2111 12.7433 53.8611 11.88C53.5345 11.0167 53.3711 10.0717 53.3711 9.045C53.3711 8.04167 53.5345 7.05 53.8611 6.07C54.2111 5.06667 54.7245 4.16833 55.4011 3.375C56.0778 2.58167 56.9178 1.95167 57.9211 1.485C58.9478 0.994998 60.1378 0.749998 61.4911 0.749998C62.6578 0.749998 63.7428 0.959998 64.7461 1.38C65.7728 1.8 66.6595 2.47667 67.4061 3.41C68.1528 4.32 68.7361 5.51 69.1561 6.98C69.5761 8.42667 69.7861 10.1883 69.7861 12.265C69.7861 14.225 69.5761 16.1033 69.1561 17.9C68.7595 19.6967 68.1528 21.295 67.3361 22.695C66.5195 24.0717 65.4928 25.1683 64.2561 25.985C63.0195 26.8017 61.5728 27.21 59.9161 27.21C59.1228 27.21 58.4111 27.07 57.7811 26.79C57.1511 26.4867 56.6145 26.125 56.1711 25.705C55.7511 25.2617 55.4245 24.795 55.1911 24.305C54.9578 23.7917 54.8411 23.325 54.8411 22.905C54.8411 22.695 54.8761 22.4733 54.9461 22.24C55.0161 21.9833 55.1211 21.75 55.2611 21.54C55.4011 21.33 55.5878 21.1667 55.8211 21.05C56.0545 20.91 56.3345 20.84 56.6611 20.84C56.8245 20.84 56.9645 20.8517 57.0811 20.875C57.2211 20.8983 57.3728 20.9333 57.5361 20.98C57.3028 21.2833 57.1861 21.6917 57.1861 22.205C57.1861 22.835 57.4311 23.395 57.9211 23.885C58.4111 24.375 59.0528 24.62 59.8461 24.62C60.7795 24.62 61.6311 24.2817 62.4011 23.605C63.1711 22.9283 63.8245 22.0183 64.3611 20.875C64.9211 19.7083 65.3411 18.3667 65.6211 16.85C65.9245 15.31 66.0761 13.6767 66.0761 11.95C66.0761 10.7833 65.9945 9.65167 65.8311 8.555C65.6911 7.45833 65.4345 6.49 65.0611 5.65C64.7111 4.78667 64.2211 4.09833 63.5911 3.585C62.9611 3.07167 62.1678 2.815 61.2111 2.815C60.3478 2.815 59.6128 3.025 59.0061 3.445C58.4228 3.865 57.9445 4.39 57.5711 5.02C57.1978 5.65 56.9295 6.33833 56.7661 7.085C56.6028 7.80833 56.5211 8.47333 56.5211 9.08C56.5211 10.4567 56.8595 11.6 57.5361 12.51C58.2128 13.3967 59.2278 13.84 60.5811 13.84C61.2578 13.84 61.8645 13.6883 62.4011 13.385C62.9611 13.0817 63.4745 12.5567 63.9411 11.81ZM76.435 9.5V26.265C77.0184 26.0783 77.5317 25.8683 77.975 25.635C78.4417 25.4017 78.8384 25.0867 79.165 24.69C79.515 24.2933 79.795 23.78 80.005 23.15C80.2384 22.52 80.4134 21.715 80.53 20.735H81.825C81.6384 21.9717 81.3934 22.9867 81.09 23.78C80.81 24.55 80.4484 25.18 80.005 25.67C79.585 26.1367 79.0717 26.51 78.465 26.79C77.8817 27.0467 77.205 27.2917 76.435 27.525V29.765C76.435 30.8617 76.3184 31.7833 76.085 32.53C75.8517 33.3 75.525 33.9183 75.105 34.385C74.7084 34.875 74.2417 35.225 73.705 35.435C73.1917 35.645 72.6434 35.75 72.06 35.75C70.8934 35.75 69.9834 35.4117 69.33 34.735C68.6767 34.0817 68.35 33.2767 68.35 32.32C68.35 31.7133 68.49 31.165 68.77 30.675C69.0267 30.185 69.3767 29.73 69.82 29.31C70.24 28.9133 70.73 28.5517 71.29 28.225C71.8267 27.9217 72.375 27.6533 72.935 27.42V9.5H76.435ZM72.305 4.46C72.305 3.83 72.5267 3.28167 72.97 2.815C73.4134 2.34833 73.9617 2.115 74.615 2.115C75.245 2.115 75.7934 2.34833 76.26 2.815C76.7267 3.28167 76.96 3.83 76.96 4.46C76.96 5.11333 76.7267 5.66167 76.26 6.105C75.7934 6.54833 75.245 6.77 74.615 6.77C73.9617 6.77 73.4134 6.54833 72.97 6.105C72.5267 5.66167 72.305 5.11333 72.305 4.46ZM71.395 33.93C72.025 33.93 72.4334 33.685 72.62 33.195C72.83 32.7283 72.935 32.0867 72.935 31.27V28.82C71.7684 29.3567 70.94 29.8817 70.45 30.395C69.96 30.9317 69.715 31.5267 69.715 32.18C69.715 32.7167 69.8667 33.1367 70.17 33.44C70.45 33.7667 70.8584 33.93 71.395 33.93ZM93.4029 9.5V21.4C93.4029 21.68 93.4146 22.0067 93.4379 22.38C93.4613 22.73 93.5196 23.0683 93.6129 23.395C93.7296 23.7217 93.8929 24.0017 94.1029 24.235C94.3363 24.445 94.6629 24.55 95.0829 24.55C95.2696 24.55 95.4679 24.5267 95.6779 24.48C95.9113 24.4333 96.0979 24.3867 96.2379 24.34C96.2613 24.4567 96.2729 24.5617 96.2729 24.655C96.2963 24.7483 96.3079 24.8533 96.3079 24.97C96.3079 25.67 96.0396 26.2183 95.5029 26.615C94.9663 27.0117 94.3596 27.21 93.6829 27.21C92.9596 27.21 92.3063 26.965 91.7229 26.475C91.1396 25.9617 90.7429 25.11 90.5329 23.92C90.1829 24.83 89.6113 25.6117 88.8179 26.265C88.0246 26.895 87.0679 27.21 85.9479 27.21C85.2479 27.21 84.5363 27.07 83.8129 26.79C83.1129 26.4867 82.4829 26.02 81.9229 25.39C81.3629 24.76 80.8963 23.9433 80.5229 22.94C80.1729 21.9367 79.9979 20.7233 79.9979 19.3C79.9979 18.2033 80.1146 17.0717 80.3479 15.905C80.6046 14.715 80.9896 13.6417 81.5029 12.685C82.0396 11.705 82.7279 10.9 83.5679 10.27C84.4079 9.64 85.4113 9.325 86.5779 9.325C87.1846 9.325 87.8029 9.45333 88.4329 9.71C89.0863 9.96667 89.5763 10.4567 89.9029 11.18V9.5H93.4029ZM86.6829 24.55C87.1263 24.55 87.5463 24.445 87.9429 24.235C88.3396 24.025 88.6779 23.745 88.9579 23.395C89.2613 23.045 89.4946 22.6483 89.6579 22.205C89.8213 21.7383 89.9029 21.2483 89.9029 20.735V12.755C89.7396 12.3583 89.4946 12.0083 89.1679 11.705C88.8413 11.4017 88.3746 11.25 87.7679 11.25C87.0213 11.25 86.3913 11.5067 85.8779 12.02C85.3646 12.51 84.9446 13.14 84.6179 13.91C84.2913 14.68 84.0463 15.5433 83.8829 16.5C83.7429 17.4333 83.6729 18.3317 83.6729 19.195C83.6729 21.085 83.9646 22.45 84.5479 23.29C85.1313 24.13 85.8429 24.55 86.6829 24.55Z" fill="#50E3C2"/>
</svg>
